HIERARCHY
ROOT Hips
{
	OFFSET 0.000000 8.830580 0.000000
	CHANNELS 6 Xposition Yposition Zposition Zrotation Yrotation Xrotation 
	JOINT Spine
	{
		OFFSET 0.000000 0.010000 0.000000
		CHANNELS 3 Zrotation Yrotation Xrotation
		JOINT Spine1
		{
			OFFSET 0.000000 2.459130 0.000000
			CHANNELS 3 Zrotation Yrotation Xrotation
			JOINT Neck
			{
				OFFSET 0.000000 2.484630 0.000000
				CHANNELS 3 Zrotation Yrotation Xrotation
				JOINT Head_virtual
				{
					OFFSET 0.000000 0.000000 0.000000
					CHANNELS 3 Zrotation Yrotation Xrotation
					JOINT Head
					{
						OFFSET 0.000000 0.927525 0.000000
						CHANNELS 3 Zrotation Yrotation Xrotation
						End Site
						{
							OFFSET 0.000000 0.000000 0.000000
						}
					}
				}
				JOINT LeftUpArm_virtual
				{
					OFFSET 0.000000 0.000000 0.000000
					CHANNELS 3 Zrotation Yrotation Xrotation
					JOINT LeftUpArm
					{
						OFFSET 1.248820 0.000000 0.000000
						CHANNELS 3 Zrotation Yrotation Xrotation
						JOINT LeftForeArm
						{
							OFFSET 2.597580 0.000000 0.000000
							CHANNELS 3 Zrotation Yrotation Xrotation
							JOINT LeftHand
							{
								OFFSET 2.455420 0.000000 0.000000
								CHANNELS 3 Zrotation Yrotation Xrotation
								End Site
								{
									OFFSET 0.000000 0.000000 0.000000
								}
							}
						}
					}
				}
				JOINT RightUpArm_virtual
				{
					OFFSET -0.000000 -0.000000 -0.000000
					CHANNELS 3 Zrotation Yrotation Xrotation
					JOINT RightUpArm
					{
						OFFSET -1.248820 -0.000000 -0.000000
						CHANNELS 3 Zrotation Yrotation Xrotation
						JOINT RightForeArm
						{
							OFFSET -2.597580 -0.000000 -0.000000
							CHANNELS 3 Zrotation Yrotation Xrotation
							JOINT RightHand
							{
								OFFSET -2.455420 -0.000000 -0.000000
								CHANNELS 3 Zrotation Yrotation Xrotation
								End Site
								{
									OFFSET 0.000000 0.000000 0.000000
								}
							}
						}
					}
				}
			}
		}
	}
	JOINT LeftUpLeg
	{
		OFFSET 1.271939 0.000000 0.000000
		CHANNELS 3 Zrotation Yrotation Xrotation
		JOINT LeftLowLeg
		{
			OFFSET 0.000000 -4.342910 0.000000
			CHANNELS 3 Zrotation Yrotation Xrotation
			JOINT LeftFoot
			{
				OFFSET 0.000000 -4.487670 0.000000
				CHANNELS 3 Zrotation Yrotation Xrotation
				JOINT LeftToeBase
				{
					OFFSET 0.000000 0.000000 1.515070
					CHANNELS 3 Zrotation Yrotation Xrotation
					End Site
					{
						OFFSET 0.000000 0.000000 0.000000
					}
				}
			}
		}
	}
	JOINT RightUpLeg
	{
		OFFSET -1.271939 0.000000 0.000000
		CHANNELS 3 Zrotation Yrotation Xrotation
		JOINT RightLowLeg
		{
			OFFSET 0.000000 -4.342910 0.000000
			CHANNELS 3 Zrotation Yrotation Xrotation
			JOINT RightFoot
			{
				OFFSET 0.000000 -4.487670 0.000000
				CHANNELS 3 Zrotation Yrotation Xrotation
				JOINT RightToeBase
				{
					OFFSET 0.000000 0.000000 1.515070
					CHANNELS 3 Zrotation Yrotation Xrotation
					End Site
					{
						OFFSET 0.000000 0.000000 0.000000
					}
				}
			}
		}
	}
}
MOTION
Frames: 16
Frame Time: 0.041667
-16.278421 8.885092 39.041510 179.264545 2.524023 178.696962 3.781125 1.710997 -14.394957 -5.077982 1.698656 16.714060 0.000000 0.000000 0.000000 13.933494 4.694812 8.868679 -9.914950 -7.511780 -85.466640 -27.351601 3.178590 6.059998 -44.243401 -7.955710 11.764500 0.000000 -19.534300 0.000000 7.465650 13.671000 1.503130 28.429701 -10.355500 -2.071991 42.682701 -10.540600 7.782013 180.000000 64.593002 180.000000 -24.671700 9.821500 -12.971600 -2.292000 -11.160046 -2.412781 0.000000 0.000000 19.271500 -18.160280 10.987056 -8.415949 0.000000 0.000000 -19.524890 0.947451 21.211052 -5.749572 0.000000 0.000000 22.712500 31.779113 -3.291600 -11.059876 0.000000 0.000000 -16.723300 
-16.289770 8.885037 39.049690 179.263944 3.151289 178.567510 3.602828 1.667759 -14.785606 -4.511811 2.042914 17.935688 0.000000 0.000000 0.000000 13.727244 4.661895 7.939091 -9.449337 -7.446459 -85.173726 -27.468700 2.796190 5.468994 -44.559399 -7.891690 11.642500 0.000000 -19.228701 0.000000 7.133640 13.745000 1.668430 28.586700 -10.138500 -2.428009 42.450298 -10.202200 7.914001 180.000000 61.565002 180.000000 -27.802200 11.126000 -11.690100 -2.390503 -10.681909 -2.198973 0.000000 0.000000 19.141500 -18.055845 11.153428 -8.445953 0.000000 0.000000 -19.519380 0.879233 21.625859 -5.845746 0.000000 0.000000 22.843901 31.864760 -3.160373 -10.910496 0.000000 0.000000 -16.730660 
-16.300576 8.888066 39.062472 179.242365 3.757440 178.637287 3.686861 2.189063 -14.309265 -5.586485 2.148841 17.509911 0.000000 0.000000 0.000000 16.106170 3.853727 7.879973 -10.732280 -6.181900 -85.323007 -26.876200 3.066620 5.582001 -44.707401 -8.159100 11.413100 0.000000 -19.053600 0.000000 7.458720 13.956100 2.475050 28.468700 -9.800320 -2.183990 43.751499 -8.497670 9.927002 180.000000 66.525002 180.000000 -44.070900 33.562801 -13.786100 -2.470204 -10.361826 -2.228796 0.000000 0.000000 19.021000 -17.943649 11.483400 -8.380527 0.000000 0.000000 -19.578720 0.722144 22.229455 -6.197196 0.000000 0.000000 23.006001 31.841283 -3.315906 -10.756924 0.000000 0.000000 -16.805640 
-16.312156 8.886219 39.073615 179.217468 4.239729 178.617569 3.576449 2.181847 -14.249849 -5.483921 2.253146 17.742272 0.000000 0.000000 0.000000 16.237704 3.830420 7.579898 -10.526804 -6.023002 -85.260274 -26.852100 2.946720 5.503998 -44.879002 -8.152240 11.312200 0.000000 -18.823999 0.000000 7.041490 13.885300 2.151840 28.761499 -9.540980 -2.089996 43.840199 -8.254830 9.565002 180.000000 64.978996 180.000000 -45.102299 34.153599 -12.197900 -2.574945 -10.116564 -2.219149 0.000000 0.000000 19.008400 -18.052294 11.633652 -8.490673 0.000000 0.000000 -19.593750 0.599930 22.640680 -6.392040 0.000000 0.000000 23.115400 31.927845 -3.285083 -10.745266 0.000000 0.000000 -16.752110 
-16.322815 8.884398 39.083232 179.195924 4.650405 178.631592 3.431519 2.083708 -14.224104 -5.366111 2.301568 17.952175 0.000000 0.000000 0.000000 16.279010 3.912251 7.368503 -10.339614 -5.880196 -85.253833 -26.819799 2.914350 5.493988 -45.046700 -8.203600 11.231200 0.000000 -18.638201 0.000000 6.729400 13.908300 2.480010 29.024000 -9.371930 -1.696014 44.041401 -7.801230 9.214996 -180.000000 63.927002 180.000000 -45.684700 34.434700 -10.729700 -2.658953 -9.882434 -2.242744 0.000000 0.000000 18.987600 -18.035762 11.783862 -8.558889 0.000000 0.000000 -19.588980 0.485885 23.180660 -6.637142 0.000000 0.000000 23.300301 32.009727 -3.412252 -10.808391 0.000000 0.000000 -16.764220 
-16.333967 8.882000 39.094619 179.181217 4.948524 178.649388 3.278912 1.944917 -14.186844 -5.227030 2.322928 18.168250 0.000000 0.000000 0.000000 16.251147 4.001047 7.124344 -10.098514 -5.780144 -85.244727 -26.815701 2.806700 5.622986 -45.131100 -8.289140 11.201500 0.000000 -18.563200 0.000000 6.373130 13.920000 2.185710 29.289400 -9.192870 -1.569000 44.197102 -7.652990 9.145996 -180.000000 63.167999 -180.000000 -45.587799 34.377899 -10.688900 -2.745912 -9.877181 -2.325366 0.000000 0.000000 19.044701 -18.100948 11.980065 -8.686712 0.000000 0.000000 -19.534740 0.375179 23.632114 -6.856368 0.000000 0.000000 23.437401 32.144699 -3.523773 -10.891943 0.000000 0.000000 -16.777910 
-16.345386 8.880717 39.105893 179.145014 5.232868 178.649478 3.132913 1.798878 -14.166327 -5.152260 2.330145 18.447703 0.000000 0.000000 0.000000 16.237863 4.072807 6.853753 -9.938630 -5.662741 -85.218352 -26.752501 2.737580 5.686005 -45.247002 -8.372790 11.335700 0.000000 -18.542500 0.000000 6.381970 13.968400 2.136780 29.548500 -9.068700 -1.484009 44.314999 -7.467710 9.363007 180.000000 62.627998 180.000000 -46.014801 34.132500 -9.454760 -2.839935 -9.688782 -2.375938 0.000000 0.000000 19.045601 -18.110749 12.053548 -8.707006 0.000000 0.000000 -19.517310 0.239354 24.053929 -7.082641 0.000000 0.000000 23.624901 32.271081 -3.615752 -10.957981 0.000000 0.000000 -16.723100 
-16.356720 8.879363 39.116677 179.111484 5.451808 178.611110 2.966045 1.632741 -14.050822 -5.037037 2.320105 18.613618 0.000000 0.000000 0.000000 16.254054 4.097544 6.680900 -9.895257 -5.585865 -85.217621 -26.716200 2.684680 5.726013 -45.349499 -8.449640 11.420400 0.000000 -18.470699 0.000000 6.401050 13.957900 2.241430 29.731800 -9.002460 -1.368988 44.441002 -7.371110 9.592010 -180.000000 62.234001 -180.000000 -46.170399 34.318001 -9.209680 -2.945763 -9.612446 -2.391750 0.000000 0.000000 19.049900 -18.097984 12.187098 -8.739242 0.000000 0.000000 -19.515510 0.119959 24.312835 -7.244626 0.000000 0.000000 23.789200 32.349709 -3.632665 -10.983241 0.000000 0.000000 -16.674650 
-16.368821 8.877758 39.129079 179.091991 5.628155 178.541831 2.809003 1.459481 -13.883194 -4.882163 2.301010 18.769600 0.000000 0.000000 0.000000 16.249336 4.074613 6.464560 -9.839007 -5.540971 -85.159239 -26.704800 2.604240 5.761993 -45.416500 -8.515920 11.523500 0.000000 -18.455799 0.000000 6.451660 13.920800 2.464100 29.836800 -8.974740 -1.309998 44.535000 -7.334800 9.803986 -180.000000 61.924004 -180.000000 -45.779400 34.604301 -9.779640 -3.048418 -9.605124 -2.428880 0.000000 0.000000 19.134300 -18.098546 12.342896 -8.792691 0.000000 0.000000 -19.506580 0.006235 24.409399 -7.389277 0.000000 0.000000 23.965900 32.378396 -3.553956 -10.923064 0.000000 0.000000 -16.684310 
-16.381833 8.876545 39.141811 179.084787 5.781520 178.448944 2.710878 1.321342 -13.656402 -4.802238 2.255857 18.898101 0.000000 0.000000 0.000000 16.141630 4.159795 6.302952 -9.806381 -5.497918 -85.128023 -26.693600 2.570770 5.785004 -45.418598 -8.612420 11.824000 0.000000 -18.473801 0.000000 6.606330 13.865500 2.476930 29.881399 -8.977710 -1.307007 44.616199 -7.346610 10.144012 -180.000000 61.705002 -180.000000 -45.670700 34.992699 -9.575730 -3.146694 -9.595713 -2.462880 0.000000 0.000000 19.246700 -18.073628 12.500193 -8.823160 0.000000 0.000000 -19.512400 -0.101302 24.412756 -7.492920 0.000000 0.000000 24.106300 32.458913 -3.375931 -10.806880 0.000000 0.000000 -16.663940 
-16.395558 8.875753 39.155361 179.078263 5.968521 178.420065 2.659909 1.273295 -13.501197 -4.770358 2.256841 19.043540 0.000000 0.000000 0.000000 16.117376 4.144560 6.101711 -9.823283 -5.451801 -85.048678 -26.661699 2.472230 5.830994 -45.392601 -8.711060 11.950600 0.000000 -18.549801 0.000000 6.797880 13.799700 2.678630 29.859501 -8.979260 -1.234985 44.715302 -7.334860 10.437012 -180.000000 61.625999 -180.000000 -45.656399 35.205601 -9.692880 -3.226656 -9.471900 -2.583273 0.000000 0.000000 19.388300 -18.026189 12.587209 -8.833444 0.000000 0.000000 -19.492450 -0.245565 24.372548 -7.650828 0.000000 0.000000 24.186600 32.544567 -3.147252 -10.640335 0.000000 0.000000 -16.626770 
-16.410093 8.875129 39.169050 179.078147 6.124003 178.399306 2.650303 1.251679 -13.314235 -4.791786 2.236429 19.112922 0.000000 0.000000 0.000000 16.170894 4.047503 5.959847 -9.923140 -5.429104 -84.970243 -26.652300 2.380000 5.848999 -45.313599 -8.794790 12.034000 0.000000 -18.593800 0.000000 6.873340 13.792000 2.816990 29.822000 -8.991560 -1.290009 44.745800 -7.444650 10.825989 180.000000 61.594002 -180.000000 -45.403000 34.887100 -9.644630 -3.300310 -9.341442 -2.724933 0.000000 0.000000 19.544399 -17.936220 12.663413 -8.814665 0.000000 0.000000 -19.529310 -0.383085 24.481625 -7.813530 0.000000 0.000000 24.277800 32.602750 -3.081575 -10.543320 0.000000 0.000000 -16.680400 
-16.425139 8.874343 39.184074 179.058322 6.381689 178.419589 2.667101 1.315976 -13.146330 -4.871661 2.269663 19.226475 0.000000 0.000000 0.000000 15.956705 4.270676 5.820582 -9.793388 -5.382146 -85.037699 -26.645399 2.318420 5.826996 -45.175598 -8.905990 12.093000 0.000000 -18.734200 0.000000 6.907360 13.803900 2.808880 29.761999 -8.998100 -1.319000 44.759300 -7.473400 11.143005 -180.000000 61.796997 -180.000000 -45.327301 35.004200 -8.981460 -3.388281 -9.125570 -2.886788 0.000000 0.000000 19.652100 -17.820299 12.773872 -8.780570 0.000000 0.000000 -19.560260 -0.569100 24.624451 -8.045280 0.000000 0.000000 24.358900 32.640968 -2.964337 -10.403174 0.000000 0.000000 -16.537060 
-16.440685 8.872985 39.199979 179.037351 6.647029 178.455694 2.715235 1.420003 -12.938642 -5.020478 2.295073 19.259857 0.000000 0.000000 0.000000 15.975068 4.277731 5.634470 -9.833864 -5.308909 -85.043016 -26.628401 2.263430 5.835999 -45.000999 -9.038140 12.160300 0.000000 -18.852400 0.000000 6.993520 13.743100 2.976080 29.705900 -8.925890 -1.378998 44.679100 -7.600030 11.464996 -180.000000 62.139999 -180.000000 -44.881001 34.796001 -10.002100 -3.482703 -8.979365 -3.079628 0.000000 0.000000 19.785101 -17.763979 12.914016 -8.794130 0.000000 0.000000 -19.520920 -0.766603 24.836567 -8.328251 0.000000 0.000000 24.486099 32.770821 -2.872097 -10.317501 0.000000 0.000000 -16.515120 
-16.457217 8.871937 39.216910 179.017570 6.924972 178.595094 2.777409 1.540060 -12.854623 -5.169204 2.345666 19.390096 0.000000 0.000000 0.000000 16.040787 4.231747 5.284474 -9.935938 -5.193665 -85.039030 -26.628799 2.180530 5.746002 -44.812500 -9.152250 12.263500 0.000000 -19.012300 0.000000 7.080490 13.730700 2.848340 29.621300 -8.914830 -1.466003 44.582500 -7.576410 11.803009 -180.000000 62.787003 180.000000 -44.727402 34.697201 -9.836700 -3.564316 -8.827826 -3.387150 0.000000 0.000000 19.925400 -17.686520 13.073915 -8.793985 0.000000 0.000000 -19.538300 -1.024287 25.010246 -8.709527 0.000000 0.000000 24.538300 32.940713 -2.773249 -10.206681 0.000000 0.000000 -16.682110 
-16.474817 8.864543 39.233416 178.950988 7.304210 178.692135 2.587062 1.153264 -13.178918 -3.950586 2.476218 20.157238 0.000000 0.000000 0.000000 13.479712 4.923443 4.453637 -8.295158 -6.280556 -84.773149 -27.340799 1.798590 5.493988 -44.544998 -9.055730 12.569600 0.000000 -19.199699 0.000000 6.456020 13.520000 1.864450 30.019300 -8.890750 -1.473999 42.950600 -8.853830 9.247986 180.000000 56.121002 -180.000000 -28.239300 10.241900 -7.153800 -3.702472 -8.553206 -3.643253 0.000000 0.000000 20.072300 -17.700179 13.126062 -8.971355 0.000000 0.000000 -19.436890 -1.329723 25.267610 -9.134168 0.000000 0.000000 24.754900 33.251481 -2.418094 -10.265040 0.000000 0.000000 -16.552090 
